<svg xmlns="http://www.w3.org/2000/svg" viewBox="0 0 64 64" fill="none">
  <rect width="64" height="64" rx="16" fill="#ECFDF5"/>
  <g transform="translate(10, 10)">
    <!-- Store/Shop icon -->
    <path d="M4 18h36v24c0 2-1.5 3-3 3H7c-1.5 0-3-1-3-3V18z" fill="#34D399"/>
    <!-- Store roof -->
    <path d="M2 18l4-12h32l4 12H2z" fill="#10B981"/>
    <!-- Store awning stripes -->
    <path d="M6 18c0 3-2 5-4 5v-5h4z" fill="#6EE7B7"/>
    <path d="M14 18c0 3-2 5-4 5s-4-2-4-5h8z" fill="#A7F3D0"/>
    <path d="M22 18c0 3-2 5-4 5s-4-2-4-5h8z" fill="#6EE7B7"/>
    <path d="M30 18c0 3-2 5-4 5s-4-2-4-5h8z" fill="#A7F3D0"/>
    <path d="M38 18c0 3-2 5-4 5s-4-2-4-5h8z" fill="#6EE7B7"/>
    <path d="M42 18v5c-2 0-4-2-4-5h4z" fill="#A7F3D0"/>
    <!-- Door -->
    <rect x="16" y="30" width="12" height="15" rx="1" fill="#FEF3C7"/>
    <!-- Chart arrow (growth) -->
    <path d="M28 28l6-6m0 0v4m0-4h-4" stroke="#065F46" stroke-width="2.5" stroke-linecap="round" stroke-linejoin="round"/>
  </g>
</svg>
