<svg xmlns="http://www.w3.org/2000/svg" viewBox="0 0 64 64" fill="none">
  <rect width="64" height="64" rx="16" fill="#FEF3C7"/>
  <g transform="translate(12, 10)">
    <!-- Lightbulb -->
    <path d="M20 4C12.268 4 6 10.268 6 18c0 5.2 2.8 9.7 7 12.2V34c0 1.1.9 2 2 2h10c1.1 0 2-.9 2-2v-3.8c4.2-2.5 7-7 7-12.2 0-7.732-6.268-14-14-14z" fill="#FCD34D"/>
    <path d="M15 38h10" stroke="#F59E0B" stroke-width="2.5" stroke-linecap="round"/>
    <path d="M16 42h8" stroke="#F59E0B" stroke-width="2.5" stroke-linecap="round"/>
    <!-- Lightbulb inner glow -->
    <circle cx="20" cy="18" r="5" fill="#FEF3C7"/>
    <!-- Gear for skills -->
    <circle cx="34" cy="34" r="8" fill="#FBBF24"/>
    <circle cx="34" cy="34" r="4" fill="#FEF3C7"/>
    <rect x="32.5" y="24" width="3" height="4" rx="1" fill="#FBBF24"/>
    <rect x="32.5" y="40" width="3" height="4" rx="1" fill="#FBBF24"/>
    <rect x="24" y="32.5" width="4" height="3" rx="1" fill="#FBBF24"/>
    <rect x="40" y="32.5" width="4" height="3" rx="1" fill="#FBBF24"/>
  </g>
</svg>
